<mxfile host="Electron" agent="Mozilla/5.0 (Windows NT 10.0; Win64; x64) AppleWebKit/537.36 (KHTML, like Gecko) draw.io/24.7.17 Chrome/128.0.6613.36 Electron/32.0.1 Safari/537.36" version="24.7.17">
  <diagram name="Page-1" id="j4blABpSN8tZsMcu-d5R">
    <mxGraphModel dx="2441" dy="857" grid="1" gridSize="10" guides="1" tooltips="1" connect="1" arrows="1" fold="1" page="1" pageScale="1" pageWidth="850" pageHeight="1100" math="0" shadow="0">
      <root>
        <mxCell id="0" />
        <mxCell id="1" parent="0" />
        <mxCell id="eUz0X9Jh7BXTnle799m3-12" value="" style="whiteSpace=wrap;html=1;aspect=fixed;" vertex="1" parent="1">
          <mxGeometry x="90" y="673" width="315" height="315" as="geometry" />
        </mxCell>
        <mxCell id="eUz0X9Jh7BXTnle799m3-7" value="" style="whiteSpace=wrap;html=1;aspect=fixed;" vertex="1" parent="1">
          <mxGeometry x="90" y="318" width="300" height="300" as="geometry" />
        </mxCell>
        <mxCell id="eUz0X9Jh7BXTnle799m3-1" value="" style="whiteSpace=wrap;html=1;aspect=fixed;" vertex="1" parent="1">
          <mxGeometry x="-720" y="308" width="730" height="730" as="geometry" />
        </mxCell>
        <mxCell id="xrObmF-BOrGr7ssZuekF-74" style="edgeStyle=orthogonalEdgeStyle;rounded=0;orthogonalLoop=1;jettySize=auto;html=1;startArrow=open;startFill=0;endArrow=open;endFill=0;strokeWidth=2;strokeColor=#808080;" parent="1" edge="1">
          <mxGeometry relative="1" as="geometry">
            <Array as="points">
              <mxPoint x="-620" y="756" />
              <mxPoint x="-620" y="718" />
              <mxPoint x="-561" y="718" />
            </Array>
            <mxPoint x="-670.22" y="756.2500000000001" as="sourcePoint" />
            <mxPoint x="-561.22" y="671.7088235294119" as="targetPoint" />
          </mxGeometry>
        </mxCell>
        <mxCell id="xrObmF-BOrGr7ssZuekF-76" style="edgeStyle=orthogonalEdgeStyle;rounded=0;orthogonalLoop=1;jettySize=auto;html=1;startArrow=open;startFill=0;endArrow=open;endFill=0;strokeWidth=2;strokeColor=#808080;" parent="1" source="xrObmF-BOrGr7ssZuekF-93" target="xrObmF-BOrGr7ssZuekF-97" edge="1">
          <mxGeometry relative="1" as="geometry">
            <Array as="points">
              <mxPoint x="-629" y="619" />
              <mxPoint x="-629" y="699" />
            </Array>
          </mxGeometry>
        </mxCell>
        <mxCell id="xrObmF-BOrGr7ssZuekF-77" style="edgeStyle=orthogonalEdgeStyle;rounded=0;orthogonalLoop=1;jettySize=auto;html=1;startArrow=open;startFill=0;endArrow=open;endFill=0;strokeWidth=2;strokeColor=#808080;" parent="1" edge="1">
          <mxGeometry relative="1" as="geometry">
            <Array as="points">
              <mxPoint x="-410" y="439" />
              <mxPoint x="-410" y="439" />
            </Array>
            <mxPoint x="-450" y="439" as="sourcePoint" />
            <mxPoint x="-360" y="439" as="targetPoint" />
          </mxGeometry>
        </mxCell>
        <mxCell id="xrObmF-BOrGr7ssZuekF-78" style="edgeStyle=orthogonalEdgeStyle;rounded=0;orthogonalLoop=1;jettySize=auto;html=1;startArrow=open;startFill=0;endArrow=open;endFill=0;strokeWidth=2;strokeColor=#808080;" parent="1" source="xrObmF-BOrGr7ssZuekF-96" target="xrObmF-BOrGr7ssZuekF-97" edge="1">
          <mxGeometry relative="1" as="geometry" />
        </mxCell>
        <mxCell id="xrObmF-BOrGr7ssZuekF-80" style="edgeStyle=orthogonalEdgeStyle;rounded=0;orthogonalLoop=1;jettySize=auto;html=1;startArrow=open;startFill=0;endArrow=open;endFill=0;strokeWidth=2;strokeColor=#808080;" parent="1" edge="1">
          <mxGeometry relative="1" as="geometry">
            <Array as="points">
              <mxPoint x="-490" y="682" />
              <mxPoint x="-490" y="689" />
              <mxPoint x="-241" y="689" />
              <mxPoint x="-241" y="391" />
            </Array>
            <mxPoint x="-490" y="689" as="sourcePoint" />
            <mxPoint x="150" y="397" as="targetPoint" />
          </mxGeometry>
        </mxCell>
        <mxCell id="xrObmF-BOrGr7ssZuekF-86" style="edgeStyle=orthogonalEdgeStyle;rounded=0;orthogonalLoop=1;jettySize=auto;html=1;startArrow=open;startFill=0;endArrow=open;endFill=0;strokeWidth=2;strokeColor=#808080;" parent="1" source="xrObmF-BOrGr7ssZuekF-97" target="xrObmF-BOrGr7ssZuekF-106" edge="1">
          <mxGeometry relative="1" as="geometry">
            <Array as="points">
              <mxPoint x="-241" y="749" />
              <mxPoint x="-241" y="781" />
            </Array>
            <mxPoint x="-470" y="742" as="sourcePoint" />
          </mxGeometry>
        </mxCell>
        <mxCell id="xrObmF-BOrGr7ssZuekF-88" style="edgeStyle=orthogonalEdgeStyle;rounded=0;orthogonalLoop=1;jettySize=auto;html=1;startArrow=open;startFill=0;endArrow=open;endFill=0;strokeWidth=2;strokeColor=#808080;" parent="1" source="xrObmF-BOrGr7ssZuekF-93" edge="1">
          <mxGeometry relative="1" as="geometry">
            <mxPoint x="-670.2153536515241" y="599.1764705882354" as="sourcePoint" />
            <mxPoint x="-528" y="459" as="targetPoint" />
            <Array as="points">
              <mxPoint x="-629" y="599" />
              <mxPoint x="-629" y="459" />
            </Array>
          </mxGeometry>
        </mxCell>
        <mxCell id="xrObmF-BOrGr7ssZuekF-91" style="edgeStyle=orthogonalEdgeStyle;rounded=0;orthogonalLoop=1;jettySize=auto;html=1;startArrow=open;startFill=0;endArrow=open;endFill=0;strokeWidth=2;strokeColor=#808080;" parent="1" edge="1">
          <mxGeometry relative="1" as="geometry">
            <mxPoint x="-450" y="459" as="sourcePoint" />
            <mxPoint x="-360" y="459" as="targetPoint" />
            <Array as="points">
              <mxPoint x="-410" y="459" />
              <mxPoint x="-410" y="459" />
            </Array>
          </mxGeometry>
        </mxCell>
        <mxCell id="xrObmF-BOrGr7ssZuekF-96" value="Sentiment Analysis" style="outlineConnect=0;fontColor=#232F3E;gradientColor=#F78E04;gradientDirection=north;fillColor=#D05C17;strokeColor=#ffffff;dashed=0;verticalLabelPosition=bottom;verticalAlign=top;align=center;html=1;fontSize=12;fontStyle=0;aspect=fixed;shape=mxgraph.aws4.resourceIcon;resIcon=mxgraph.aws4.lambda;labelBackgroundColor=#ffffff;spacingTop=3;" parent="1" vertex="1">
          <mxGeometry x="-410" y="882" width="78" height="78" as="geometry" />
        </mxCell>
        <mxCell id="xrObmF-BOrGr7ssZuekF-97" value="Machine Learning" style="outlineConnect=0;fontColor=#232F3E;gradientColor=#945DF2;gradientDirection=north;fillColor=#5A30B5;strokeColor=#ffffff;dashed=0;verticalLabelPosition=bottom;verticalAlign=top;align=center;html=1;fontSize=12;fontStyle=0;aspect=fixed;shape=mxgraph.aws4.resourceIcon;resIcon=mxgraph.aws4.api_gateway;labelBackgroundColor=#ffffff;" parent="1" vertex="1">
          <mxGeometry x="-571" y="675" width="78" height="78" as="geometry" />
        </mxCell>
        <mxCell id="xrObmF-BOrGr7ssZuekF-106" value="Amazon&lt;br&gt;CloudWatch Logs&lt;br&gt;" style="outlineConnect=0;fontColor=#232F3E;gradientColor=none;gradientDirection=north;fillColor=#F34482;strokeColor=none;dashed=0;verticalLabelPosition=bottom;verticalAlign=top;align=center;html=1;fontSize=12;fontStyle=0;aspect=fixed;shape=mxgraph.aws4.cloudwatch;labelBackgroundColor=#ffffff;" parent="1" vertex="1">
          <mxGeometry x="-129.99999999999977" y="742" width="78" height="78" as="geometry" />
        </mxCell>
        <mxCell id="xrObmF-BOrGr7ssZuekF-156" value="" style="shape=image;html=1;verticalAlign=top;verticalLabelPosition=bottom;labelBackgroundColor=#ffffff;imageAspect=0;aspect=fixed;image=https://cdn1.iconfinder.com/data/icons/logo-s-icon-pack-collection/512/whatsup-128.png" parent="1" vertex="1">
          <mxGeometry x="-520" y="412" width="70" height="70" as="geometry" />
        </mxCell>
        <mxCell id="xrObmF-BOrGr7ssZuekF-158" value="&lt;b&gt;&lt;font style=&quot;font-size: 17px;&quot;&gt;Dra. JÃ´&lt;/font&gt;&lt;/b&gt;" style="text;align=center;html=1;verticalAlign=middle;whiteSpace=wrap;rounded=0;fontColor=#31683f;" parent="1" vertex="1">
          <mxGeometry x="-520" y="479" width="60" height="30" as="geometry" />
        </mxCell>
        <mxCell id="xrObmF-BOrGr7ssZuekF-159" value="Identity Provider" style="outlineConnect=0;fontColor=#232F3E;gradientColor=#F54749;gradientDirection=north;fillColor=#C7131F;strokeColor=#ffffff;dashed=0;verticalLabelPosition=bottom;verticalAlign=top;align=center;html=1;fontSize=12;fontStyle=0;aspect=fixed;shape=mxgraph.aws4.resourceIcon;resIcon=mxgraph.aws4.cloud_directory;labelBackgroundColor=#ffffff;" parent="1" vertex="1">
          <mxGeometry x="-707" y="707" width="60" height="60" as="geometry" />
        </mxCell>
        <mxCell id="xrObmF-BOrGr7ssZuekF-160" value="Language Processing" style="outlineConnect=0;fontColor=#232F3E;gradientColor=#945DF2;gradientDirection=north;fillColor=#5A30B5;strokeColor=#ffffff;dashed=0;verticalLabelPosition=bottom;verticalAlign=top;align=center;html=1;fontSize=12;fontStyle=0;aspect=fixed;shape=mxgraph.aws4.resourceIcon;resIcon=mxgraph.aws4.api_gateway;labelBackgroundColor=#ffffff;" parent="1" vertex="1">
          <mxGeometry x="-348" y="412" width="78" height="78" as="geometry" />
        </mxCell>
        <mxCell id="xrObmF-BOrGr7ssZuekF-163" style="edgeStyle=orthogonalEdgeStyle;rounded=0;orthogonalLoop=1;jettySize=auto;html=1;startArrow=open;startFill=0;endArrow=open;endFill=0;strokeWidth=2;strokeColor=#808080;" parent="1" edge="1">
          <mxGeometry relative="1" as="geometry">
            <mxPoint x="-332" y="890" as="sourcePoint" />
            <mxPoint x="-493" y="722" as="targetPoint" />
            <Array as="points">
              <mxPoint x="-370" y="890" />
              <mxPoint x="-370" y="722" />
            </Array>
          </mxGeometry>
        </mxCell>
        <mxCell id="xrObmF-BOrGr7ssZuekF-167" style="edgeStyle=orthogonalEdgeStyle;rounded=0;orthogonalLoop=1;jettySize=auto;html=1;startArrow=open;startFill=0;endArrow=open;endFill=0;strokeWidth=2;strokeColor=#808080;" parent="1" edge="1">
          <mxGeometry relative="1" as="geometry">
            <mxPoint x="-500" y="699" as="sourcePoint" />
            <mxPoint x="-348" y="492" as="targetPoint" />
            <Array as="points">
              <mxPoint x="-449" y="699" />
              <mxPoint x="-449" y="492" />
              <mxPoint x="-348" y="492" />
            </Array>
          </mxGeometry>
        </mxCell>
        <mxCell id="xrObmF-BOrGr7ssZuekF-168" value="" style="sketch=0;pointerEvents=1;shadow=0;dashed=0;html=1;strokeColor=none;fillColor=#505050;labelPosition=center;verticalLabelPosition=bottom;verticalAlign=top;outlineConnect=0;align=center;shape=mxgraph.office.users.call_center_agent;" parent="1" vertex="1">
          <mxGeometry x="115" y="742" width="60" height="80" as="geometry" />
        </mxCell>
        <mxCell id="xrObmF-BOrGr7ssZuekF-171" value="" style="image;sketch=0;aspect=fixed;html=1;points=[];align=center;fontSize=12;image=img/lib/mscae/Shared_Dashboard.svg;" parent="1" vertex="1">
          <mxGeometry x="-230" y="908" width="97.56" height="80" as="geometry" />
        </mxCell>
        <mxCell id="xrObmF-BOrGr7ssZuekF-173" value="&lt;b&gt;&lt;font style=&quot;font-size: 14px;&quot;&gt;Monitor Dashboard&lt;/font&gt;&lt;/b&gt;" style="text;align=center;html=1;verticalAlign=middle;whiteSpace=wrap;rounded=0;fontColor=#31683f;" parent="1" vertex="1">
          <mxGeometry x="-211.22000000000003" y="993" width="60" height="30" as="geometry" />
        </mxCell>
        <mxCell id="xrObmF-BOrGr7ssZuekF-174" style="edgeStyle=orthogonalEdgeStyle;rounded=0;orthogonalLoop=1;jettySize=auto;html=1;startArrow=open;startFill=0;endArrow=open;endFill=0;strokeWidth=2;strokeColor=#808080;entryX=0.613;entryY=0.007;entryDx=0;entryDy=0;entryPerimeter=0;" parent="1" target="xrObmF-BOrGr7ssZuekF-171" edge="1">
          <mxGeometry relative="1" as="geometry">
            <Array as="points">
              <mxPoint x="-483" y="808" />
              <mxPoint x="-170" y="808" />
            </Array>
            <mxPoint x="-483" y="759" as="sourcePoint" />
            <mxPoint x="-120" y="791" as="targetPoint" />
          </mxGeometry>
        </mxCell>
        <mxCell id="xrObmF-BOrGr7ssZuekF-175" value="" style="image;sketch=0;aspect=fixed;html=1;points=[];align=center;fontSize=12;image=img/lib/mscae/Key_Vaults.svg;" parent="1" vertex="1">
          <mxGeometry x="-680" y="907" width="76.8" height="80" as="geometry" />
        </mxCell>
        <mxCell id="xrObmF-BOrGr7ssZuekF-177" value="&lt;b&gt;&lt;font style=&quot;font-size: 14px;&quot;&gt;Key Vault&lt;/font&gt;&lt;/b&gt;" style="text;align=center;html=1;verticalAlign=middle;whiteSpace=wrap;rounded=0;fontColor=#31683f;" parent="1" vertex="1">
          <mxGeometry x="-670.22" y="990" width="60" height="30" as="geometry" />
        </mxCell>
        <mxCell id="eUz0X9Jh7BXTnle799m3-3" value="AWS Environment" style="text;strokeColor=none;align=center;fillColor=none;html=1;verticalAlign=middle;whiteSpace=wrap;rounded=0;" vertex="1" parent="1">
          <mxGeometry x="-710" y="338" width="60" height="30" as="geometry" />
        </mxCell>
        <mxCell id="eUz0X9Jh7BXTnle799m3-4" style="edgeStyle=orthogonalEdgeStyle;rounded=0;orthogonalLoop=1;jettySize=auto;html=1;startArrow=open;startFill=0;endArrow=open;endFill=0;strokeWidth=2;strokeColor=#808080;" edge="1" parent="1">
          <mxGeometry relative="1" as="geometry">
            <mxPoint x="-670" y="959" as="sourcePoint" />
            <mxPoint x="-701.22" y="788" as="targetPoint" />
          </mxGeometry>
        </mxCell>
        <mxCell id="eUz0X9Jh7BXTnle799m3-6" style="edgeStyle=orthogonalEdgeStyle;rounded=0;orthogonalLoop=1;jettySize=auto;html=1;startArrow=open;startFill=0;endArrow=open;endFill=0;strokeWidth=2;strokeColor=#808080;entryX=0;entryY=0.5;entryDx=0;entryDy=0;" edge="1" parent="1" source="xrObmF-BOrGr7ssZuekF-160" target="eUz0X9Jh7BXTnle799m3-12">
          <mxGeometry relative="1" as="geometry">
            <mxPoint x="-619" y="474.97" as="sourcePoint" />
            <mxPoint x="60" y="828" as="targetPoint" />
            <Array as="points">
              <mxPoint x="-380" y="475" />
              <mxPoint x="-380" y="658" />
              <mxPoint x="60" y="658" />
              <mxPoint x="60" y="831" />
            </Array>
          </mxGeometry>
        </mxCell>
        <mxCell id="eUz0X9Jh7BXTnle799m3-8" value="SAP Environment" style="text;strokeColor=none;align=center;fillColor=none;html=1;verticalAlign=middle;whiteSpace=wrap;rounded=0;" vertex="1" parent="1">
          <mxGeometry x="110" y="328" width="60" height="30" as="geometry" />
        </mxCell>
        <mxCell id="eUz0X9Jh7BXTnle799m3-9" value="" style="shape=mxgraph.sap.icon;labelPosition=center;verticalLabelPosition=bottom;align=center;verticalAlign=top;strokeWidth=1;strokeColor=#D5DADD;fillColor=#EDEFF0;gradientColor=#FCFCFC;gradientDirection=west;aspect=fixed;SAPIcon=SAP_Keystore_Service" vertex="1" parent="1">
          <mxGeometry x="120" y="482" width="50" height="50" as="geometry" />
        </mxCell>
        <mxCell id="eUz0X9Jh7BXTnle799m3-10" value="" style="image;sketch=0;aspect=fixed;html=1;points=[];align=center;fontSize=12;image=img/lib/mscae/SAP_HANA_on_Azure.svg;" vertex="1" parent="1">
          <mxGeometry x="160" y="368" width="147" height="73.5" as="geometry" />
        </mxCell>
        <mxCell id="eUz0X9Jh7BXTnle799m3-15" value="Solubio Environment&lt;div&gt;&lt;br&gt;&lt;/div&gt;&lt;div&gt;Call Center&lt;/div&gt;" style="text;strokeColor=none;align=center;fillColor=none;html=1;verticalAlign=middle;whiteSpace=wrap;rounded=0;" vertex="1" parent="1">
          <mxGeometry x="105" y="688" width="60" height="30" as="geometry" />
        </mxCell>
        <mxCell id="eUz0X9Jh7BXTnle799m3-16" value="" style="sketch=0;pointerEvents=1;shadow=0;dashed=0;html=1;strokeColor=none;fillColor=#505050;labelPosition=center;verticalLabelPosition=bottom;verticalAlign=top;outlineConnect=0;align=center;shape=mxgraph.office.users.call_center_agent;" vertex="1" parent="1">
          <mxGeometry x="247" y="858" width="60" height="80" as="geometry" />
        </mxCell>
        <mxCell id="eUz0X9Jh7BXTnle799m3-17" value="" style="sketch=0;pointerEvents=1;shadow=0;dashed=0;html=1;strokeColor=none;fillColor=#505050;labelPosition=center;verticalLabelPosition=bottom;verticalAlign=top;outlineConnect=0;align=center;shape=mxgraph.office.users.call_center_agent;" vertex="1" parent="1">
          <mxGeometry x="115" y="858" width="60" height="80" as="geometry" />
        </mxCell>
        <mxCell id="eUz0X9Jh7BXTnle799m3-18" value="" style="sketch=0;pointerEvents=1;shadow=0;dashed=0;html=1;strokeColor=none;fillColor=#505050;labelPosition=center;verticalLabelPosition=bottom;verticalAlign=top;outlineConnect=0;align=center;shape=mxgraph.office.users.call_center_agent;" vertex="1" parent="1">
          <mxGeometry x="247" y="742" width="60" height="80" as="geometry" />
        </mxCell>
        <mxCell id="eUz0X9Jh7BXTnle799m3-19" value="" style="ellipse;shape=cloud;whiteSpace=wrap;html=1;" vertex="1" parent="1">
          <mxGeometry x="-810" y="70" width="350" height="208" as="geometry" />
        </mxCell>
        <mxCell id="eUz0X9Jh7BXTnle799m3-20" value="&lt;font style=&quot;font-size: 18px;&quot;&gt;Internet&lt;/font&gt;" style="text;strokeColor=none;align=center;fillColor=none;html=1;verticalAlign=middle;whiteSpace=wrap;rounded=0;" vertex="1" parent="1">
          <mxGeometry x="-690" y="110" width="60" height="30" as="geometry" />
        </mxCell>
        <mxCell id="xrObmF-BOrGr7ssZuekF-93" value="Authenticated user" style="outlineConnect=0;gradientColor=none;fontColor=#545B64;strokeColor=none;fillColor=#879196;dashed=0;verticalLabelPosition=bottom;verticalAlign=top;align=center;html=1;fontSize=12;fontStyle=0;aspect=fixed;shape=mxgraph.aws4.illustration_notification;pointerEvents=1;labelBackgroundColor=#ffffff;" parent="1" vertex="1">
          <mxGeometry x="-684" y="140" width="100" height="81" as="geometry" />
        </mxCell>
        <mxCell id="xrObmF-BOrGr7ssZuekF-75" style="edgeStyle=orthogonalEdgeStyle;rounded=0;orthogonalLoop=1;jettySize=auto;html=1;startArrow=open;startFill=0;endArrow=open;endFill=0;strokeWidth=2;strokeColor=#808080;" parent="1" source="xrObmF-BOrGr7ssZuekF-93" edge="1">
          <mxGeometry relative="1" as="geometry">
            <Array as="points">
              <mxPoint x="-640" y="439" />
            </Array>
            <mxPoint x="-528" y="439" as="targetPoint" />
          </mxGeometry>
        </mxCell>
        <mxCell id="eUz0X9Jh7BXTnle799m3-21" value="&lt;b&gt;&lt;font style=&quot;font-size: 14px;&quot;&gt;Key Vault&lt;/font&gt;&lt;/b&gt;" style="text;align=center;html=1;verticalAlign=middle;whiteSpace=wrap;rounded=0;fontColor=#31683f;" vertex="1" parent="1">
          <mxGeometry x="115" y="550" width="60" height="30" as="geometry" />
        </mxCell>
        <mxCell id="eUz0X9Jh7BXTnle799m3-22" value="" style="image;aspect=fixed;html=1;points=[];align=center;fontSize=12;image=img/lib/azure2/other/Azure_Center_for_SAP.svg;" vertex="1" parent="1">
          <mxGeometry x="290" y="473" width="68" height="68" as="geometry" />
        </mxCell>
        <mxCell id="eUz0X9Jh7BXTnle799m3-23" value="&lt;b&gt;&lt;font style=&quot;font-size: 14px;&quot;&gt;Identity Manager&lt;/font&gt;&lt;/b&gt;" style="text;align=center;html=1;verticalAlign=middle;whiteSpace=wrap;rounded=0;fontColor=#31683f;" vertex="1" parent="1">
          <mxGeometry x="290" y="550" width="60" height="30" as="geometry" />
        </mxCell>
        <mxCell id="eUz0X9Jh7BXTnle799m3-25" value="&lt;b&gt;&lt;font style=&quot;font-size: 14px;&quot;&gt;SAP Hana&lt;/font&gt;&lt;/b&gt;" style="text;align=center;html=1;verticalAlign=middle;whiteSpace=wrap;rounded=0;fontColor=#31683f;" vertex="1" parent="1">
          <mxGeometry x="175" y="449" width="60" height="30" as="geometry" />
        </mxCell>
      </root>
    </mxGraphModel>
  </diagram>
</mxfile>
